<svg width="400" height="400" viewBox="0 0 400 400" fill="none" xmlns="http://www.w3.org/2000/svg">
  <g opacity="1">
    <!-- Psi symbol (ψ) -->
    <path d="M120 80 C120 80, 120 200, 120 280 C120 320, 140 340, 180 340 C220 340, 240 320, 240 280 C240 200, 240 80, 240 80" 
          stroke="#3b1f2b" 
          stroke-width="12" 
          fill="none" 
          stroke-linecap="round"/>
    
    <path d="M80 80 C80 80, 80 160, 80 200 C80 240, 100 260, 140 260 C160 260, 180 250, 180 230" 
          stroke="#3b1f2b" 
          stroke-width="12" 
          fill="none" 
          stroke-linecap="round"/>
    
    <path d="M320 80 C320 80, 320 160, 320 200 C320 240, 300 260, 260 260 C240 260, 220 250, 220 230" 
          stroke="#3b1f2b" 
          stroke-width="12" 
          fill="none" 
          stroke-linecap="round"/>
    
    <!-- Vertical line -->
    <path d="M200 280 L200 360" 
          stroke="#3b1f2b" 
          stroke-width="12" 
          stroke-linecap="round"/>
  </g>
</svg>
